<mxfile host="Electron" modified="2024-04-04T10:24:14.928Z" agent="Mozilla/5.0 (Windows NT 10.0; Win64; x64) AppleWebKit/537.36 (KHTML, like Gecko) draw.io/24.1.0 Chrome/120.0.6099.109 Electron/28.1.0 Safari/537.36" etag="xXS5koSM6MXJ78aD4-Qt" version="24.1.0" type="device">
  <diagram name="Страница — 1" id="uOd_ktwBlTCfwu3s5NZL">
    <mxGraphModel dx="1444" dy="1016" grid="1" gridSize="10" guides="1" tooltips="1" connect="1" arrows="1" fold="1" page="1" pageScale="1" pageWidth="1169" pageHeight="827" math="0" shadow="0">
      <root>
        <mxCell id="0" />
        <mxCell id="1" parent="0" />
        <mxCell id="5649SHsyCGUr4UzLu1_9-23" style="edgeStyle=orthogonalEdgeStyle;rounded=0;orthogonalLoop=1;jettySize=auto;html=1;exitX=0.5;exitY=0.5;exitDx=0;exitDy=0;exitPerimeter=0;endArrow=none;endFill=0;" edge="1" parent="1" source="5649SHsyCGUr4UzLu1_9-1" target="5649SHsyCGUr4UzLu1_9-16">
          <mxGeometry relative="1" as="geometry" />
        </mxCell>
        <mxCell id="5649SHsyCGUr4UzLu1_9-1" value="ПС" style="shape=umlActor;verticalLabelPosition=bottom;verticalAlign=top;html=1;outlineConnect=0;fontSize=14;" vertex="1" parent="1">
          <mxGeometry x="990" y="450" width="30" height="60" as="geometry" />
        </mxCell>
        <mxCell id="5649SHsyCGUr4UzLu1_9-17" style="edgeStyle=orthogonalEdgeStyle;rounded=0;orthogonalLoop=1;jettySize=auto;html=1;exitX=0.5;exitY=0.5;exitDx=0;exitDy=0;exitPerimeter=0;endArrow=none;endFill=0;" edge="1" parent="1" source="5649SHsyCGUr4UzLu1_9-2" target="5649SHsyCGUr4UzLu1_9-14">
          <mxGeometry relative="1" as="geometry">
            <Array as="points">
              <mxPoint x="1005" y="130" />
              <mxPoint x="930" y="130" />
              <mxPoint x="930" y="115" />
            </Array>
          </mxGeometry>
        </mxCell>
        <mxCell id="5649SHsyCGUr4UzLu1_9-18" style="edgeStyle=orthogonalEdgeStyle;rounded=0;orthogonalLoop=1;jettySize=auto;html=1;exitX=0.5;exitY=0.5;exitDx=0;exitDy=0;exitPerimeter=0;endArrow=none;endFill=0;" edge="1" parent="1" source="5649SHsyCGUr4UzLu1_9-2" target="5649SHsyCGUr4UzLu1_9-15">
          <mxGeometry relative="1" as="geometry">
            <Array as="points">
              <mxPoint x="930" y="140" />
              <mxPoint x="930" y="235" />
            </Array>
          </mxGeometry>
        </mxCell>
        <mxCell id="5649SHsyCGUr4UzLu1_9-2" value="&lt;span style=&quot;font-size: 14px; line-height: 150%;&quot;&gt;Сотрудник&lt;br style=&quot;font-size: 14px;&quot;&gt;производственного отдела&lt;/span&gt;" style="shape=umlActor;verticalLabelPosition=bottom;verticalAlign=top;html=1;outlineConnect=0;fontSize=14;" vertex="1" parent="1">
          <mxGeometry x="990" y="110" width="30" height="60" as="geometry" />
        </mxCell>
        <mxCell id="5649SHsyCGUr4UzLu1_9-19" style="edgeStyle=orthogonalEdgeStyle;rounded=0;orthogonalLoop=1;jettySize=auto;html=1;exitX=0.5;exitY=0.5;exitDx=0;exitDy=0;exitPerimeter=0;endArrow=none;endFill=0;" edge="1" parent="1" source="5649SHsyCGUr4UzLu1_9-3" target="5649SHsyCGUr4UzLu1_9-10">
          <mxGeometry relative="1" as="geometry">
            <Array as="points">
              <mxPoint x="145" y="470" />
            </Array>
          </mxGeometry>
        </mxCell>
        <mxCell id="5649SHsyCGUr4UzLu1_9-20" style="edgeStyle=orthogonalEdgeStyle;rounded=0;orthogonalLoop=1;jettySize=auto;html=1;exitX=0.5;exitY=0.5;exitDx=0;exitDy=0;exitPerimeter=0;endArrow=none;endFill=0;" edge="1" parent="1" source="5649SHsyCGUr4UzLu1_9-3" target="5649SHsyCGUr4UzLu1_9-11">
          <mxGeometry relative="1" as="geometry">
            <Array as="points">
              <mxPoint x="145" y="400" />
              <mxPoint x="440" y="400" />
            </Array>
          </mxGeometry>
        </mxCell>
        <mxCell id="5649SHsyCGUr4UzLu1_9-21" style="edgeStyle=orthogonalEdgeStyle;rounded=0;orthogonalLoop=1;jettySize=auto;html=1;exitX=0.5;exitY=0.5;exitDx=0;exitDy=0;exitPerimeter=0;endArrow=none;endFill=0;" edge="1" parent="1" source="5649SHsyCGUr4UzLu1_9-3" target="5649SHsyCGUr4UzLu1_9-12">
          <mxGeometry relative="1" as="geometry">
            <Array as="points">
              <mxPoint x="260" y="480" />
              <mxPoint x="260" y="645" />
            </Array>
          </mxGeometry>
        </mxCell>
        <mxCell id="5649SHsyCGUr4UzLu1_9-22" style="edgeStyle=orthogonalEdgeStyle;rounded=0;orthogonalLoop=1;jettySize=auto;html=1;exitX=0.5;exitY=0.5;exitDx=0;exitDy=0;exitPerimeter=0;endArrow=none;endFill=0;" edge="1" parent="1" source="5649SHsyCGUr4UzLu1_9-3" target="5649SHsyCGUr4UzLu1_9-13">
          <mxGeometry relative="1" as="geometry">
            <Array as="points">
              <mxPoint x="145" y="745" />
            </Array>
          </mxGeometry>
        </mxCell>
        <mxCell id="5649SHsyCGUr4UzLu1_9-3" value="&lt;span style=&quot;font-size: 14px; line-height: 150%;&quot;&gt;Сотрудник&lt;br style=&quot;font-size: 14px;&quot;&gt;отдела работы с клиентами&lt;/span&gt;" style="shape=umlActor;verticalLabelPosition=bottom;verticalAlign=top;html=1;outlineConnect=0;fontSize=14;" vertex="1" parent="1">
          <mxGeometry x="130" y="450" width="30" height="60" as="geometry" />
        </mxCell>
        <mxCell id="5649SHsyCGUr4UzLu1_9-9" style="edgeStyle=orthogonalEdgeStyle;rounded=0;orthogonalLoop=1;jettySize=auto;html=1;exitX=0.5;exitY=0.5;exitDx=0;exitDy=0;exitPerimeter=0;endArrow=none;endFill=0;" edge="1" parent="1" source="5649SHsyCGUr4UzLu1_9-4" target="5649SHsyCGUr4UzLu1_9-6">
          <mxGeometry relative="1" as="geometry" />
        </mxCell>
        <mxCell id="5649SHsyCGUr4UzLu1_9-4" value="&lt;span style=&quot;font-size: 14px; line-height: 150%;&quot;&gt;Клиент&lt;/span&gt;" style="shape=umlActor;verticalLabelPosition=bottom;verticalAlign=top;html=1;outlineConnect=0;fontSize=14;" vertex="1" parent="1">
          <mxGeometry x="130" y="110" width="30" height="60" as="geometry" />
        </mxCell>
        <mxCell id="5649SHsyCGUr4UzLu1_9-5" value="Эстетика" style="shape=umlFrame;whiteSpace=wrap;html=1;pointerEvents=0;" vertex="1" parent="1">
          <mxGeometry x="340" y="40" width="560" height="760" as="geometry" />
        </mxCell>
        <mxCell id="5649SHsyCGUr4UzLu1_9-6" value="&lt;span style=&quot;line-height: 150%;&quot;&gt;&lt;font face=&quot;Helvetica&quot; style=&quot;font-size: 13px;&quot;&gt;Получать&lt;br/&gt;сводную информацию о заказе, его статусе и ходе работ&lt;/font&gt;&lt;/span&gt;" style="ellipse;whiteSpace=wrap;html=1;" vertex="1" parent="1">
          <mxGeometry x="420" y="80" width="140" height="70" as="geometry" />
        </mxCell>
        <mxCell id="5649SHsyCGUr4UzLu1_9-10" value="&lt;span style=&quot;line-height: 150%;&quot;&gt;&lt;font style=&quot;font-size: 14px;&quot;&gt;Работать с информацией о клиенте&lt;/font&gt;&lt;/span&gt;" style="ellipse;whiteSpace=wrap;html=1;" vertex="1" parent="1">
          <mxGeometry x="370" y="440" width="140" height="70" as="geometry" />
        </mxCell>
        <mxCell id="5649SHsyCGUr4UzLu1_9-11" value="&lt;span style=&quot;line-height: 150%;&quot;&gt;&lt;font style=&quot;font-size: 14px;&quot;&gt;Работать с информацией о заказах&lt;/font&gt;&lt;/span&gt;" style="ellipse;whiteSpace=wrap;html=1;" vertex="1" parent="1">
          <mxGeometry x="370" y="360" width="140" height="70" as="geometry" />
        </mxCell>
        <mxCell id="5649SHsyCGUr4UzLu1_9-12" value="&lt;span style=&quot;line-height: 150%;&quot;&gt;&lt;font face=&quot;Helvetica&quot; style=&quot;font-size: 14px;&quot;&gt;Получать&lt;br/&gt;сводную информацию о загруженности сотрудников производственного отдела&lt;/font&gt;&lt;/span&gt;" style="ellipse;whiteSpace=wrap;html=1;" vertex="1" parent="1">
          <mxGeometry x="370" y="610" width="200" height="70" as="geometry" />
        </mxCell>
        <mxCell id="5649SHsyCGUr4UzLu1_9-26" style="edgeStyle=orthogonalEdgeStyle;rounded=0;orthogonalLoop=1;jettySize=auto;html=1;exitX=1;exitY=0.5;exitDx=0;exitDy=0;dashed=1;" edge="1" parent="1" source="5649SHsyCGUr4UzLu1_9-13" target="5649SHsyCGUr4UzLu1_9-16">
          <mxGeometry relative="1" as="geometry" />
        </mxCell>
        <mxCell id="5649SHsyCGUr4UzLu1_9-27" value="include" style="edgeLabel;html=1;align=center;verticalAlign=middle;resizable=0;points=[];" vertex="1" connectable="0" parent="5649SHsyCGUr4UzLu1_9-26">
          <mxGeometry x="-0.244" y="1" relative="1" as="geometry">
            <mxPoint x="1" as="offset" />
          </mxGeometry>
        </mxCell>
        <mxCell id="5649SHsyCGUr4UzLu1_9-13" value="&lt;span style=&quot;line-height: 150%;&quot;&gt;&lt;font face=&quot;Helvetica&quot; style=&quot;font-size: 14px;&quot;&gt;Оформлять&lt;br/&gt;товарный чек в случае предоплаты&lt;/font&gt;&lt;/span&gt;" style="ellipse;whiteSpace=wrap;html=1;" vertex="1" parent="1">
          <mxGeometry x="370" y="710" width="140" height="70" as="geometry" />
        </mxCell>
        <mxCell id="5649SHsyCGUr4UzLu1_9-14" value="&lt;font style=&quot;font-size: 14px;&quot;&gt;&lt;span style=&quot;line-height: 150%;&quot;&gt;&lt;font style=&quot;font-size: 14px;&quot;&gt;Работать со&amp;nbsp;&lt;/font&gt;&lt;/span&gt;&lt;span style=&quot;line-height: 150%;&quot;&gt;статусом&lt;br&gt;заказа&lt;/span&gt;&lt;/font&gt;" style="ellipse;whiteSpace=wrap;html=1;" vertex="1" parent="1">
          <mxGeometry x="710" y="80" width="160" height="70" as="geometry" />
        </mxCell>
        <mxCell id="5649SHsyCGUr4UzLu1_9-15" value="&lt;span style=&quot;line-height: 150%;&quot;&gt;&lt;font face=&quot;Helvetica&quot; style=&quot;font-size: 14px;&quot;&gt;Получать&lt;br/&gt;сводную информацию о заказе&lt;/font&gt;&lt;/span&gt;" style="ellipse;whiteSpace=wrap;html=1;" vertex="1" parent="1">
          <mxGeometry x="710" y="200" width="160" height="70" as="geometry" />
        </mxCell>
        <mxCell id="5649SHsyCGUr4UzLu1_9-16" value="&lt;span style=&quot;line-height: 150%;&quot;&gt;&lt;font face=&quot;Helvetica&quot; style=&quot;font-size: 14px;&quot;&gt;Осуществлять&lt;br/&gt;платежные транзакции&lt;/font&gt;&lt;/span&gt;" style="ellipse;whiteSpace=wrap;html=1;" vertex="1" parent="1">
          <mxGeometry x="730" y="710" width="140" height="70" as="geometry" />
        </mxCell>
        <mxCell id="5649SHsyCGUr4UzLu1_9-28" style="edgeStyle=orthogonalEdgeStyle;rounded=0;orthogonalLoop=1;jettySize=auto;html=1;dashed=1;" edge="1" parent="1" source="5649SHsyCGUr4UzLu1_9-11" target="5649SHsyCGUr4UzLu1_9-6">
          <mxGeometry relative="1" as="geometry">
            <mxPoint x="310" y="355" as="sourcePoint" />
            <mxPoint x="600" y="230" as="targetPoint" />
            <Array as="points">
              <mxPoint x="440" y="223" />
              <mxPoint x="500" y="223" />
            </Array>
          </mxGeometry>
        </mxCell>
        <mxCell id="5649SHsyCGUr4UzLu1_9-29" value="include" style="edgeLabel;html=1;align=center;verticalAlign=middle;resizable=0;points=[];" vertex="1" connectable="0" parent="5649SHsyCGUr4UzLu1_9-28">
          <mxGeometry x="-0.244" y="1" relative="1" as="geometry">
            <mxPoint x="1" as="offset" />
          </mxGeometry>
        </mxCell>
        <mxCell id="5649SHsyCGUr4UzLu1_9-39" style="edgeStyle=orthogonalEdgeStyle;rounded=0;orthogonalLoop=1;jettySize=auto;html=1;exitX=0;exitY=0.5;exitDx=0;exitDy=0;dashed=1;" edge="1" parent="1" source="5649SHsyCGUr4UzLu1_9-30" target="5649SHsyCGUr4UzLu1_9-10">
          <mxGeometry relative="1" as="geometry" />
        </mxCell>
        <mxCell id="5649SHsyCGUr4UzLu1_9-41" value="extend" style="edgeLabel;html=1;align=center;verticalAlign=middle;resizable=0;points=[];" vertex="1" connectable="0" parent="5649SHsyCGUr4UzLu1_9-39">
          <mxGeometry x="-0.0594" y="1" relative="1" as="geometry">
            <mxPoint as="offset" />
          </mxGeometry>
        </mxCell>
        <mxCell id="5649SHsyCGUr4UzLu1_9-30" value="&lt;span style=&quot;line-height: 150%;&quot;&gt;&lt;font style=&quot;font-size: 14px;&quot;&gt;Создавать запись клиента&lt;/font&gt;&lt;/span&gt;" style="ellipse;whiteSpace=wrap;html=1;" vertex="1" parent="1">
          <mxGeometry x="600" y="445" width="90" height="60" as="geometry" />
        </mxCell>
        <mxCell id="5649SHsyCGUr4UzLu1_9-36" style="edgeStyle=orthogonalEdgeStyle;rounded=0;orthogonalLoop=1;jettySize=auto;html=1;exitX=0.5;exitY=0;exitDx=0;exitDy=0;dashed=1;" edge="1" parent="1" source="5649SHsyCGUr4UzLu1_9-32" target="5649SHsyCGUr4UzLu1_9-10">
          <mxGeometry relative="1" as="geometry">
            <Array as="points">
              <mxPoint x="525" y="520" />
              <mxPoint x="470" y="520" />
            </Array>
          </mxGeometry>
        </mxCell>
        <mxCell id="5649SHsyCGUr4UzLu1_9-42" value="extend" style="edgeLabel;html=1;align=center;verticalAlign=middle;resizable=0;points=[];" vertex="1" connectable="0" parent="5649SHsyCGUr4UzLu1_9-36">
          <mxGeometry x="-0.0495" y="-1" relative="1" as="geometry">
            <mxPoint as="offset" />
          </mxGeometry>
        </mxCell>
        <mxCell id="5649SHsyCGUr4UzLu1_9-32" value="&lt;span style=&quot;line-height: 150%;&quot;&gt;&lt;font style=&quot;font-size: 14px;&quot;&gt;Удалять запись клиента&lt;/font&gt;&lt;/span&gt;" style="ellipse;whiteSpace=wrap;html=1;" vertex="1" parent="1">
          <mxGeometry x="480" y="530" width="90" height="60" as="geometry" />
        </mxCell>
        <mxCell id="5649SHsyCGUr4UzLu1_9-38" style="edgeStyle=orthogonalEdgeStyle;rounded=0;orthogonalLoop=1;jettySize=auto;html=1;exitX=0.5;exitY=0;exitDx=0;exitDy=0;dashed=1;" edge="1" parent="1" source="5649SHsyCGUr4UzLu1_9-33" target="5649SHsyCGUr4UzLu1_9-10">
          <mxGeometry relative="1" as="geometry">
            <Array as="points">
              <mxPoint x="590" y="530" />
              <mxPoint x="590" y="500" />
            </Array>
          </mxGeometry>
        </mxCell>
        <mxCell id="5649SHsyCGUr4UzLu1_9-40" value="extend" style="edgeLabel;html=1;align=center;verticalAlign=middle;resizable=0;points=[];" vertex="1" connectable="0" parent="5649SHsyCGUr4UzLu1_9-38">
          <mxGeometry x="0.0787" y="1" relative="1" as="geometry">
            <mxPoint x="-20" as="offset" />
          </mxGeometry>
        </mxCell>
        <mxCell id="5649SHsyCGUr4UzLu1_9-33" value="&lt;span style=&quot;line-height: 150%;&quot;&gt;&lt;font style=&quot;font-size: 14px;&quot;&gt;Редактировать запись клиента&lt;/font&gt;&lt;/span&gt;" style="ellipse;whiteSpace=wrap;html=1;" vertex="1" parent="1">
          <mxGeometry x="590" y="530" width="90" height="60" as="geometry" />
        </mxCell>
        <mxCell id="5649SHsyCGUr4UzLu1_9-35" style="edgeStyle=orthogonalEdgeStyle;rounded=0;orthogonalLoop=1;jettySize=auto;html=1;exitX=0.5;exitY=0;exitDx=0;exitDy=0;dashed=1;" edge="1" parent="1" source="5649SHsyCGUr4UzLu1_9-34" target="5649SHsyCGUr4UzLu1_9-10">
          <mxGeometry relative="1" as="geometry">
            <Array as="points">
              <mxPoint x="415" y="520" />
              <mxPoint x="440" y="520" />
            </Array>
          </mxGeometry>
        </mxCell>
        <mxCell id="5649SHsyCGUr4UzLu1_9-43" value="extend" style="edgeLabel;html=1;align=center;verticalAlign=middle;resizable=0;points=[];" vertex="1" connectable="0" parent="5649SHsyCGUr4UzLu1_9-35">
          <mxGeometry x="-0.4333" relative="1" as="geometry">
            <mxPoint y="6" as="offset" />
          </mxGeometry>
        </mxCell>
        <mxCell id="5649SHsyCGUr4UzLu1_9-34" value="&lt;span style=&quot;line-height: 150%;&quot;&gt;&lt;font style=&quot;font-size: 14px;&quot;&gt;Искать запись клиента&lt;/font&gt;&lt;/span&gt;" style="ellipse;whiteSpace=wrap;html=1;" vertex="1" parent="1">
          <mxGeometry x="370" y="540" width="90" height="60" as="geometry" />
        </mxCell>
        <mxCell id="5649SHsyCGUr4UzLu1_9-68" style="edgeStyle=orthogonalEdgeStyle;rounded=0;orthogonalLoop=1;jettySize=auto;html=1;exitX=0;exitY=0.5;exitDx=0;exitDy=0;dashed=1;" edge="1" parent="1" source="5649SHsyCGUr4UzLu1_9-70" target="5649SHsyCGUr4UzLu1_9-11">
          <mxGeometry relative="1" as="geometry">
            <mxPoint x="660" y="271" as="targetPoint" />
            <Array as="points">
              <mxPoint x="460" y="326" />
            </Array>
          </mxGeometry>
        </mxCell>
        <mxCell id="5649SHsyCGUr4UzLu1_9-69" value="extend" style="edgeLabel;html=1;align=center;verticalAlign=middle;resizable=0;points=[];" vertex="1" connectable="0" parent="5649SHsyCGUr4UzLu1_9-68">
          <mxGeometry x="-0.0594" y="1" relative="1" as="geometry">
            <mxPoint as="offset" />
          </mxGeometry>
        </mxCell>
        <mxCell id="5649SHsyCGUr4UzLu1_9-70" value="&lt;span style=&quot;line-height: 150%;&quot;&gt;&lt;font style=&quot;font-size: 14px;&quot;&gt;Создавать заказ&lt;/font&gt;&lt;/span&gt;" style="ellipse;whiteSpace=wrap;html=1;" vertex="1" parent="1">
          <mxGeometry x="490" y="296" width="90" height="60" as="geometry" />
        </mxCell>
        <mxCell id="5649SHsyCGUr4UzLu1_9-71" style="edgeStyle=orthogonalEdgeStyle;rounded=0;orthogonalLoop=1;jettySize=auto;html=1;dashed=1;" edge="1" parent="1" source="5649SHsyCGUr4UzLu1_9-73" target="5649SHsyCGUr4UzLu1_9-11">
          <mxGeometry relative="1" as="geometry">
            <mxPoint x="620" y="303" as="targetPoint" />
            <Array as="points">
              <mxPoint x="675" y="395" />
            </Array>
          </mxGeometry>
        </mxCell>
        <mxCell id="5649SHsyCGUr4UzLu1_9-72" value="extend" style="edgeLabel;html=1;align=center;verticalAlign=middle;resizable=0;points=[];" vertex="1" connectable="0" parent="5649SHsyCGUr4UzLu1_9-71">
          <mxGeometry x="-0.0495" y="-1" relative="1" as="geometry">
            <mxPoint as="offset" />
          </mxGeometry>
        </mxCell>
        <mxCell id="5649SHsyCGUr4UzLu1_9-73" value="&lt;span style=&quot;line-height: 150%;&quot;&gt;&lt;font style=&quot;font-size: 14px;&quot;&gt;Удалять заказ&lt;/font&gt;&lt;/span&gt;" style="ellipse;whiteSpace=wrap;html=1;" vertex="1" parent="1">
          <mxGeometry x="630" y="326" width="90" height="60" as="geometry" />
        </mxCell>
        <mxCell id="5649SHsyCGUr4UzLu1_9-74" style="edgeStyle=orthogonalEdgeStyle;rounded=0;orthogonalLoop=1;jettySize=auto;html=1;exitX=0.5;exitY=0;exitDx=0;exitDy=0;dashed=1;dashPattern=8 8;" edge="1" parent="1" source="5649SHsyCGUr4UzLu1_9-76" target="5649SHsyCGUr4UzLu1_9-11">
          <mxGeometry relative="1" as="geometry">
            <mxPoint x="639" y="296" as="targetPoint" />
            <Array as="points">
              <mxPoint x="600" y="296" />
              <mxPoint x="600" y="370" />
            </Array>
          </mxGeometry>
        </mxCell>
        <mxCell id="5649SHsyCGUr4UzLu1_9-75" value="extend" style="edgeLabel;html=1;align=center;verticalAlign=middle;resizable=0;points=[];" vertex="1" connectable="0" parent="5649SHsyCGUr4UzLu1_9-74">
          <mxGeometry x="0.0787" y="1" relative="1" as="geometry">
            <mxPoint as="offset" />
          </mxGeometry>
        </mxCell>
        <mxCell id="5649SHsyCGUr4UzLu1_9-76" value="&lt;span style=&quot;line-height: 150%;&quot;&gt;&lt;font style=&quot;font-size: 14px;&quot;&gt;Редактировать заказ&lt;/font&gt;&lt;/span&gt;" style="ellipse;whiteSpace=wrap;html=1;" vertex="1" parent="1">
          <mxGeometry x="581" y="263" width="90" height="60" as="geometry" />
        </mxCell>
        <mxCell id="5649SHsyCGUr4UzLu1_9-77" style="edgeStyle=orthogonalEdgeStyle;rounded=0;orthogonalLoop=1;jettySize=auto;html=1;dashed=1;" edge="1" parent="1" source="5649SHsyCGUr4UzLu1_9-79" target="5649SHsyCGUr4UzLu1_9-11">
          <mxGeometry relative="1" as="geometry">
            <mxPoint x="590" y="306" as="targetPoint" />
            <Array as="points">
              <mxPoint x="560" y="410" />
              <mxPoint x="560" y="420" />
            </Array>
          </mxGeometry>
        </mxCell>
        <mxCell id="5649SHsyCGUr4UzLu1_9-78" value="extend" style="edgeLabel;html=1;align=center;verticalAlign=middle;resizable=0;points=[];" vertex="1" connectable="0" parent="5649SHsyCGUr4UzLu1_9-77">
          <mxGeometry x="-0.4333" relative="1" as="geometry">
            <mxPoint x="-38" as="offset" />
          </mxGeometry>
        </mxCell>
        <mxCell id="5649SHsyCGUr4UzLu1_9-79" value="&lt;span style=&quot;line-height: 150%;&quot;&gt;&lt;font style=&quot;font-size: 14px;&quot;&gt;Искать заказ&lt;/font&gt;&lt;/span&gt;" style="ellipse;whiteSpace=wrap;html=1;" vertex="1" parent="1">
          <mxGeometry x="680" y="390" width="90" height="60" as="geometry" />
        </mxCell>
        <mxCell id="5649SHsyCGUr4UzLu1_9-82" style="edgeStyle=orthogonalEdgeStyle;rounded=0;orthogonalLoop=1;jettySize=auto;html=1;exitX=1;exitY=0.5;exitDx=0;exitDy=0;dashed=1;" edge="1" parent="1" source="5649SHsyCGUr4UzLu1_9-80" target="5649SHsyCGUr4UzLu1_9-14">
          <mxGeometry relative="1" as="geometry">
            <Array as="points">
              <mxPoint x="720" y="80" />
              <mxPoint x="720" y="50" />
              <mxPoint x="790" y="50" />
            </Array>
          </mxGeometry>
        </mxCell>
        <mxCell id="5649SHsyCGUr4UzLu1_9-84" value="extend" style="edgeLabel;html=1;align=center;verticalAlign=middle;resizable=0;points=[];" vertex="1" connectable="0" parent="5649SHsyCGUr4UzLu1_9-82">
          <mxGeometry x="0.1209" y="2" relative="1" as="geometry">
            <mxPoint as="offset" />
          </mxGeometry>
        </mxCell>
        <mxCell id="5649SHsyCGUr4UzLu1_9-80" value="&lt;span style=&quot;line-height: 150%;&quot;&gt;&lt;font style=&quot;font-size: 14px;&quot;&gt;Просматривать статус заказа&lt;/font&gt;&lt;/span&gt;" style="ellipse;whiteSpace=wrap;html=1;" vertex="1" parent="1">
          <mxGeometry x="610" y="50" width="90" height="60" as="geometry" />
        </mxCell>
        <mxCell id="5649SHsyCGUr4UzLu1_9-83" style="edgeStyle=orthogonalEdgeStyle;rounded=0;orthogonalLoop=1;jettySize=auto;html=1;exitX=1;exitY=0.5;exitDx=0;exitDy=0;dashed=1;" edge="1" parent="1" source="5649SHsyCGUr4UzLu1_9-81" target="5649SHsyCGUr4UzLu1_9-14">
          <mxGeometry relative="1" as="geometry">
            <Array as="points">
              <mxPoint x="790" y="160" />
            </Array>
          </mxGeometry>
        </mxCell>
        <mxCell id="5649SHsyCGUr4UzLu1_9-85" value="extend" style="edgeLabel;html=1;align=center;verticalAlign=middle;resizable=0;points=[];" vertex="1" connectable="0" parent="5649SHsyCGUr4UzLu1_9-83">
          <mxGeometry x="-0.2634" y="-1" relative="1" as="geometry">
            <mxPoint x="-2" y="-3" as="offset" />
          </mxGeometry>
        </mxCell>
        <mxCell id="5649SHsyCGUr4UzLu1_9-81" value="&lt;span style=&quot;font-size: 14px;&quot;&gt;Редактировать статус заказа&lt;/span&gt;" style="ellipse;whiteSpace=wrap;html=1;" vertex="1" parent="1">
          <mxGeometry x="610" y="130" width="90" height="60" as="geometry" />
        </mxCell>
      </root>
    </mxGraphModel>
  </diagram>
</mxfile>
